# xmcd
#
# Track frame offsets:
#	200
#	16087
#	28075
#	44985
#	58325
#	66500
#	75082
#	83512
#	92192
#	120762
#	134650
#	150425
#	164455
#	183990
#	196030
#	211700
#	227870
#	247552
#
# Disc length: 3496 seconds
#
# Revision: 0
# Processed by: cddbd v1.4PL0 Copyright (c) Steve Scherf et al.
# Submitted via: EasyCDDAExtractor 5.0.4.1
#
DISCID=de0da612
DTITLE=King Mackerel
DYEAR=1900
DGENRE=Blues
TTITLE0=King Mackerel and The Blues Are Running
TTITLE1=Corncake Inlet Inn
TTITLE2=Food Chain
TTITLE3=Timeless
TTITLE4=Ain't That Something
TTITLE5=Joyride
TTITLE6=Who's Idea Was This
TTITLE7=Down By The Edge Of The Sea
TTITLE8=Georgia Rose
TTITLE9=Sand Mountain Song
TTITLE10=Sound Side
TTITLE11=Shag Baby
TTITLE12=Maco Light
TTITLE13=To Catch A King
TTITLE14=Home On The River
TTITLE15=A Mighty Storm
TTITLE16=I'm The Breeze
TTITLE17=Beautiful Day
EXTD=
EXTT0=
EXTT1=
EXTT2=
EXTT3=
EXTT4=
EXTT5=
EXTT6=
EXTT7=
EXTT8=
EXTT9=
EXTT10=
EXTT11=
EXTT12=
EXTT13=
EXTT14=
EXTT15=
EXTT16=
EXTT17=
PLAYORDER=
